<svg width="13" height="13" viewBox="0 0 13 13" fill="none" xmlns="http://www.w3.org/2000/svg">
<g clip-path="url(#clip0_4_883)">
<path d="M5.07812 2.4375C5.07812 3.22278 5.71472 3.85938 6.5 3.85938C7.28528 3.85938 7.92188 3.22278 7.92188 2.4375C7.92188 1.65222 7.28528 1.01562 6.5 1.01562C5.71472 1.01563 5.07812 1.65222 5.07812 2.4375Z" fill="#4C5B72"/>
<path d="M5.07812 6.70312C5.07812 7.4884 5.71472 8.125 6.5 8.125C7.28528 8.125 7.92188 7.4884 7.92188 6.70312C7.92188 5.91785 7.28528 5.28125 6.5 5.28125C5.71472 5.28125 5.07812 5.91785 5.07812 6.70312Z" fill="#4C5B72"/>
<path d="M5.07812 10.9688C5.07812 11.754 5.71472 12.3906 6.5 12.3906C7.28528 12.3906 7.92188 11.754 7.92188 10.9688C7.92188 10.1835 7.28528 9.54688 6.5 9.54688C5.71472 9.54688 5.07812 10.1835 5.07812 10.9688Z" fill="#4C5B72"/>
</g>
<defs>
<clipPath id="clip0_4_883">
<rect width="13" height="13" fill="white"/>
</clipPath>
</defs>
</svg>
