<svg width="15" height="14" viewBox="0 0 15 14" fill="none" xmlns="http://www.w3.org/2000/svg">
<path d="M7.16231 13.1831C6.32683 13.1831 5.54407 13.0251 4.81401 12.7091C4.08384 12.3931 3.44722 11.9635 2.90417 11.4205C2.36111 10.8774 1.93157 10.2408 1.61553 9.51062C1.2995 8.78056 1.14148 7.99779 1.14148 7.16231C1.14148 6.32683 1.2995 5.54407 1.61553 4.81401C1.93157 4.08384 2.36111 3.44722 2.90417 2.90417C3.44722 2.36111 4.08384 1.93157 4.81401 1.61553C5.54407 1.2995 6.32683 1.14148 7.16231 1.14148C7.99779 1.14148 8.78056 1.2995 9.51061 1.61553C10.2408 1.93157 10.8774 2.36111 11.4205 2.90417C11.9635 3.44722 12.3931 4.08384 12.7091 4.81401C13.0251 5.54407 13.1831 6.32683 13.1831 7.16231C13.1831 7.99779 13.0251 8.78056 12.7091 9.51062C12.3931 10.2408 11.9635 10.8774 11.4205 11.4205C10.8774 11.9635 10.2408 12.3931 9.51061 12.7091C8.78056 13.0251 7.99779 13.1831 7.16231 13.1831ZM9.26819 10.0148L10.0148 9.26819L7.69356 6.94716V3.62065H6.63106V7.37747L9.26819 10.0148ZM2.73788 0L3.48447 0.746407L0.746406 3.48447L0 2.73789L2.73788 0ZM11.5867 0L14.3246 2.73789L13.5782 3.48447L10.8402 0.746407L11.5867 0ZM7.16231 12.1206C8.53908 12.1206 9.70966 11.6384 10.6741 10.6741C11.6384 9.70966 12.1206 8.53908 12.1206 7.16231C12.1206 5.78555 11.6384 4.61497 10.6741 3.65057C9.70966 2.68618 8.53908 2.20398 7.16231 2.20398C5.78555 2.20398 4.61497 2.68618 3.65057 3.65057C2.68618 4.61497 2.20398 5.78555 2.20398 7.16231C2.20398 8.53908 2.68618 9.70966 3.65057 10.6741C4.61497 11.6384 5.78555 12.1206 7.16231 12.1206Z" fill="#717171"/>
</svg>
