<svg width="20" height="20" viewBox="0 0 20 20" fill="none" xmlns="http://www.w3.org/2000/svg">
<path d="M1.70436 5.00373V17.2621C1.70436 17.3641 1.73713 17.4479 1.80265 17.5135C1.86817 17.579 1.95197 17.6118 2.05404 17.6118H17.2621C17.3641 17.6118 17.4479 17.579 17.5135 17.5135C17.579 17.4479 17.6118 17.3641 17.6118 17.2621V5.00373H13.6349V13.4054L9.65806 11.417L5.68121 13.4054V5.00373H1.70436ZM2.05404 19.3161C1.48744 19.3161 1.0034 19.1155 0.601924 18.7142C0.200641 18.3127 0 17.8287 0 17.2621V3.98338C0 3.74022 0.0390108 3.50824 0.117033 3.28743C0.194865 3.06681 0.311709 2.86323 0.467564 2.6767L2.06285 0.747363C2.24919 0.504018 2.48222 0.318621 2.76192 0.191172C3.04163 0.0637237 3.33733 0 3.64904 0H15.6452C15.9569 0 16.2544 0.0637237 16.5377 0.191172C16.821 0.318621 17.0559 0.504018 17.2425 0.747363L18.8486 2.69858C19.0044 2.88511 19.1213 3.09048 19.1991 3.3147C19.2771 3.53911 19.3161 3.77299 19.3161 4.01633V17.2621C19.3161 17.8287 19.1155 18.3127 18.7142 18.7142C18.3127 19.1155 17.8287 19.3161 17.2621 19.3161H2.05404ZM2.14807 3.29965H17.1573L15.9182 1.82452C15.8818 1.78816 15.84 1.759 15.7926 1.73703C15.7453 1.71525 15.6961 1.70436 15.6452 1.70436H3.66012C3.60918 1.70436 3.55994 1.71525 3.51241 1.73703C3.46507 1.759 3.42321 1.78816 3.38685 1.82452L2.14807 3.29965ZM7.38557 5.00373V10.6304L9.65806 9.49416L11.9305 10.6304V5.00373H7.38557Z" fill="white"/>
</svg>
