<svg width="21" height="23" viewBox="0 0 21 23" fill="none" xmlns="http://www.w3.org/2000/svg">
<path d="M2.16722 22.9163C1.5616 22.9163 1.04899 22.7065 0.629396 22.2869C0.209799 21.8673 0 21.3547 0 20.7491V4.70308C0 4.09747 0.209799 3.58486 0.629396 3.16526C1.04899 2.74566 1.5616 2.53587 2.16722 2.53587H3.82703V0H5.67146V2.53587H14.7551V0H16.5534V2.53587H18.2132C18.8188 2.53587 19.3314 2.74566 19.751 3.16526C20.1706 3.58486 20.3804 4.09747 20.3804 4.70308V20.7491C20.3804 21.3547 20.1706 21.8673 19.751 22.2869C19.3314 22.7065 18.8188 22.9163 18.2132 22.9163H2.16722ZM2.16722 21.118H18.2132C18.3055 21.118 18.39 21.0796 18.4668 21.0026C18.5437 20.9259 18.5822 20.8414 18.5822 20.7491V9.49848H1.79827V20.7491C1.79827 20.8414 1.83674 20.9259 1.91366 21.0026C1.99039 21.0796 2.07491 21.118 2.16722 21.118ZM1.79827 7.70021H18.5822V4.70308C18.5822 4.61077 18.5437 4.52625 18.4668 4.44953C18.39 4.3726 18.3055 4.33414 18.2132 4.33414H2.16722C2.07491 4.33414 1.99039 4.3726 1.91366 4.44953C1.83674 4.52625 1.79827 4.61077 1.79827 4.70308V7.70021ZM10.1902 14.0172C9.8967 14.0172 9.64654 13.9138 9.43974 13.707C9.23314 13.5004 9.12984 13.2503 9.12984 12.9566C9.12984 12.663 9.23314 12.4129 9.43974 12.2061C9.64654 11.9995 9.8967 11.8962 10.1902 11.8962C10.4837 11.8962 10.7339 11.9995 10.9407 12.2061C11.1473 12.4129 11.2506 12.663 11.2506 12.9566C11.2506 13.2503 11.1473 13.5004 10.9407 13.707C10.7339 13.9138 10.4837 14.0172 10.1902 14.0172ZM5.39482 14.0172C5.1013 14.0172 4.85114 13.9138 4.64434 13.707C4.43774 13.5004 4.33444 13.2503 4.33444 12.9566C4.33444 12.663 4.43774 12.4129 4.64434 12.2061C4.85114 11.9995 5.1013 11.8962 5.39482 11.8962C5.68834 11.8962 5.9385 11.9995 6.1453 12.2061C6.3519 12.4129 6.4552 12.663 6.4552 12.9566C6.4552 13.2503 6.3519 13.5004 6.1453 13.707C5.9385 13.9138 5.68834 14.0172 5.39482 14.0172ZM14.9856 14.0172C14.6921 14.0172 14.4419 13.9138 14.2351 13.707C14.0285 13.5004 13.9252 13.2503 13.9252 12.9566C13.9252 12.663 14.0285 12.4129 14.2351 12.2061C14.4419 11.9995 14.6921 11.8962 14.9856 11.8962C15.2791 11.8962 15.5293 11.9995 15.7361 12.2061C15.9427 12.4129 16.046 12.663 16.046 12.9566C16.046 13.2503 15.9427 13.5004 15.7361 13.707C15.5293 13.9138 15.2791 14.0172 14.9856 14.0172ZM10.1902 18.7203C9.8967 18.7203 9.64654 18.6169 9.43974 18.4101C9.23314 18.2035 9.12984 17.9535 9.12984 17.6599C9.12984 17.3662 9.23314 17.1161 9.43974 16.9095C9.64654 16.7027 9.8967 16.5993 10.1902 16.5993C10.4837 16.5993 10.7339 16.7027 10.9407 16.9095C11.1473 17.1161 11.2506 17.3662 11.2506 17.6599C11.2506 17.9535 11.1473 18.2035 10.9407 18.4101C10.7339 18.6169 10.4837 18.7203 10.1902 18.7203ZM5.39482 18.7203C5.1013 18.7203 4.85114 18.6169 4.64434 18.4101C4.43774 18.2035 4.33444 17.9535 4.33444 17.6599C4.33444 17.3662 4.43774 17.1161 4.64434 16.9095C4.85114 16.7027 5.1013 16.5993 5.39482 16.5993C5.68834 16.5993 5.9385 16.7027 6.1453 16.9095C6.3519 17.1161 6.4552 17.3662 6.4552 17.6599C6.4552 17.9535 6.3519 18.2035 6.1453 18.4101C5.9385 18.6169 5.68834 18.7203 5.39482 18.7203ZM14.9856 18.7203C14.6921 18.7203 14.4419 18.6169 14.2351 18.4101C14.0285 18.2035 13.9252 17.9535 13.9252 17.6599C13.9252 17.3662 14.0285 17.1161 14.2351 16.9095C14.4419 16.7027 14.6921 16.5993 14.9856 16.5993C15.2791 16.5993 15.5293 16.7027 15.7361 16.9095C15.9427 17.1161 16.046 17.3662 16.046 17.6599C16.046 17.9535 15.9427 18.2035 15.7361 18.4101C15.5293 18.6169 15.2791 18.7203 14.9856 18.7203Z" fill="white"/>
</svg>
