<svg width="17" height="17" viewBox="0 0 17 17" fill="none" xmlns="http://www.w3.org/2000/svg">
<mask id="mask0_15_1164" style="mask-type:alpha" maskUnits="userSpaceOnUse" x="0" y="0" width="17" height="17">
<rect width="17" height="17" fill="#D9D9D9"/>
</mask>
<g mask="url(#mask0_15_1164)">
<path d="M1.41675 15.5833L4.95842 5.66667L11.3334 12.0417L1.41675 15.5833ZM3.75425 13.2458L8.748 11.475L5.52508 8.25208L3.75425 13.2458ZM10.3063 8.88958L9.56258 8.14583L13.5293 4.17917C13.907 3.80139 14.3615 3.6125 14.8928 3.6125C15.424 3.6125 15.8786 3.80139 16.2563 4.17917L16.6813 4.60417L15.9376 5.34792L15.5126 4.92292C15.3473 4.75764 15.1407 4.675 14.8928 4.675C14.6449 4.675 14.4383 4.75764 14.273 4.92292L10.3063 8.88958ZM7.473 6.05625L6.72925 5.3125L7.15425 4.8875C7.31953 4.72222 7.40217 4.52153 7.40217 4.28542C7.40217 4.04931 7.31953 3.84861 7.15425 3.68333L6.69383 3.22292L7.43758 2.47917L7.898 2.93958C8.27578 3.31736 8.46467 3.76597 8.46467 4.28542C8.46467 4.80486 8.27578 5.25347 7.898 5.63125L7.473 6.05625ZM8.88967 7.47292L8.14592 6.72917L10.6959 4.17917C10.8612 4.01389 10.9438 3.80729 10.9438 3.55938C10.9438 3.31146 10.8612 3.10486 10.6959 2.93958L9.56258 1.80625L10.3063 1.0625L11.4397 2.19583C11.8174 2.57361 12.0063 3.02813 12.0063 3.55938C12.0063 4.09063 11.8174 4.54514 11.4397 4.92292L8.88967 7.47292ZM11.723 10.3062L10.9792 9.5625L12.1126 8.42917C12.4904 8.05139 12.9449 7.8625 13.4761 7.8625C14.0074 7.8625 14.4619 8.05139 14.8397 8.42917L15.973 9.5625L15.2292 10.3062L14.0959 9.17292C13.9306 9.00764 13.724 8.925 13.4761 8.925C13.2282 8.925 13.0216 9.00764 12.8563 9.17292L11.723 10.3062Z" fill="#7B54FA"/>
</g>
</svg>
