<svg width="21" height="22" viewBox="0 0 21 22" fill="none" xmlns="http://www.w3.org/2000/svg">
<path d="M18.5967 0.25C19.1932 0.25 19.7076 0.4596 20.124 0.875977C20.5404 1.29235 20.75 1.80679 20.75 2.40332V14.3867C20.75 14.9832 20.5404 15.4977 20.124 15.9141C19.7077 16.3303 19.1931 16.5391 18.5967 16.5391H4.32812L0.676758 20.1914L0.25 20.6182V2.40332C0.25 1.80679 0.4596 1.29235 0.875977 0.875977C1.29235 0.4596 1.80679 0.25 2.40332 0.25H18.5967ZM2.40332 2.3291C2.40037 2.3291 2.38665 2.32723 2.35742 2.35645L2.35645 2.35742C2.32723 2.38665 2.3291 2.40037 2.3291 2.40332V15.5684L3.37695 14.5332L3.4502 14.4609H18.5967C18.5996 14.4609 18.6132 14.462 18.6426 14.4326H18.6436C18.6726 14.4036 18.6709 14.3899 18.6709 14.3867V2.40332C18.6709 2.40036 18.6728 2.38665 18.6436 2.35742L18.6426 2.35645C18.6134 2.32723 18.5996 2.3291 18.5967 2.3291H2.40332Z" fill="#7B54FA" stroke="#7B54FA" stroke-width="0.5"/>
</svg>
