<svg width="20" height="20" viewBox="0 0 20 20" fill="none" xmlns="http://www.w3.org/2000/svg">
<mask id="mask0_15_1155" style="mask-type:alpha" maskUnits="userSpaceOnUse" x="0" y="0" width="20" height="20">
<rect width="20" height="20" fill="#D9D9D9"/>
</mask>
<g mask="url(#mask0_15_1155)">
<path d="M12.2436 15C11.7083 15 11.254 14.8133 10.8807 14.44C10.5074 14.0665 10.3207 13.6122 10.3207 13.0769C10.3207 12.5416 10.5074 12.0873 10.8807 11.714C11.254 11.3406 11.7083 11.154 12.2436 11.154C12.7789 11.154 13.2333 11.3406 13.6067 11.714C13.9801 12.0873 14.1667 12.5416 14.1667 13.0769C14.1667 13.6122 13.9801 14.0665 13.6067 14.44C13.2333 14.8133 12.7789 15 12.2436 15ZM4.42321 17.9167C4.00223 17.9167 3.64591 17.7708 3.35425 17.4792C3.06258 17.1875 2.91675 16.8312 2.91675 16.4102V5.25647C2.91675 4.8355 3.06258 4.47918 3.35425 4.18751C3.64591 3.89585 4.00223 3.75001 4.42321 3.75001H5.57696V1.9873H6.85904V3.75001H13.1732V1.9873H14.4232V3.75001H15.577C15.9979 3.75001 16.3542 3.89585 16.6459 4.18751C16.9376 4.47918 17.0834 4.8355 17.0834 5.25647V16.4102C17.0834 16.8312 16.9376 17.1875 16.6459 17.4792C16.3542 17.7708 15.9979 17.9167 15.577 17.9167H4.42321ZM4.42321 16.6667H15.577C15.6411 16.6667 15.6999 16.6399 15.7532 16.5865C15.8067 16.5331 15.8334 16.4744 15.8334 16.4102V8.5898H4.16675V16.4102C4.16675 16.4744 4.19348 16.5331 4.24696 16.5865C4.30029 16.6399 4.35904 16.6667 4.42321 16.6667ZM4.16675 7.3398H15.8334V5.25647C15.8334 5.1923 15.8067 5.13355 15.7532 5.08022C15.6999 5.02675 15.6411 5.00001 15.577 5.00001H4.42321C4.35904 5.00001 4.30029 5.02675 4.24696 5.08022C4.19348 5.13355 4.16675 5.1923 4.16675 5.25647V7.3398Z" fill="#D97708"/>
</g>
</svg>
