<svg width="45" height="44" viewBox="0 0 45 44" fill="none" xmlns="http://www.w3.org/2000/svg">
<path d="M15.25 23.25H19.75C20.0152 23.25 20.2695 23.3554 20.457 23.543C20.6446 23.7305 20.75 23.9848 20.75 24.25V28.75C20.75 29.0152 20.6446 29.2695 20.457 29.457C20.2695 29.6446 20.0152 29.75 19.75 29.75H15.25C14.9848 29.75 14.7305 29.6446 14.543 29.457C14.3554 29.2695 14.25 29.0152 14.25 28.75V24.25C14.25 23.9848 14.3554 23.7305 14.543 23.543C14.7305 23.3554 14.9848 23.25 15.25 23.25ZM24.25 23.25H28.75C29.0152 23.25 29.2695 23.3554 29.457 23.543C29.6446 23.7305 29.75 23.9848 29.75 24.25V28.75C29.75 29.0152 29.6446 29.2695 29.457 29.457C29.2695 29.6446 29.0152 29.75 28.75 29.75H24.25C23.9848 29.75 23.7305 29.6446 23.543 29.457C23.3554 29.2695 23.25 29.0152 23.25 28.75V24.25C23.25 23.9848 23.3554 23.7305 23.543 23.543C23.7305 23.3554 23.9848 23.25 24.25 23.25ZM15.25 14.25H19.75C20.0152 14.25 20.2695 14.3554 20.457 14.543C20.6446 14.7305 20.75 14.9848 20.75 15.25V19.75C20.75 20.0152 20.6446 20.2695 20.457 20.457C20.2695 20.6446 20.0152 20.75 19.75 20.75H15.25C14.9848 20.75 14.7305 20.6446 14.543 20.457C14.3554 20.2695 14.25 20.0152 14.25 19.75V15.25C14.25 14.9848 14.3554 14.7305 14.543 14.543C14.7305 14.3554 14.9848 14.25 15.25 14.25ZM24.25 14.25H28.75C29.0152 14.25 29.2695 14.3554 29.457 14.543C29.6446 14.7305 29.75 14.9848 29.75 15.25V19.75C29.75 20.0152 29.6446 20.2695 29.457 20.457C29.2695 20.6446 29.0152 20.75 28.75 20.75H24.25C23.9848 20.75 23.7305 20.6446 23.543 20.457C23.3554 20.2695 23.25 20.0152 23.25 19.75V15.25C23.25 14.9848 23.3554 14.7305 23.543 14.543C23.7305 14.3554 23.9848 14.25 24.25 14.25Z" stroke="#6B6A69"/>
</svg>
