<svg width="19" height="19" viewBox="0 0 19 19" fill="none" xmlns="http://www.w3.org/2000/svg">
<mask id="mask0_15_1204" style="mask-type:alpha" maskUnits="userSpaceOnUse" x="0" y="0" width="19" height="19">
<rect width="19" height="19" fill="#D9D9D9"/>
</mask>
<g mask="url(#mask0_15_1204)">
<path d="M14.7981 14.6458H6.57705C6.17713 14.6458 5.83862 14.5073 5.56154 14.2302C5.28446 13.9531 5.14591 13.6146 5.14591 13.2147V2.61864C5.14591 2.21871 5.28446 1.88021 5.56154 1.60313C5.83862 1.32604 6.17713 1.1875 6.57705 1.1875H12.073L16.2292 5.34375V13.2147C16.2292 13.6146 16.0907 13.9531 15.8136 14.2302C15.5365 14.5073 15.198 14.6458 14.7981 14.6458ZM11.4792 5.9375V2.375H6.57705C6.51609 2.375 6.46028 2.4004 6.40961 2.4512C6.35881 2.50186 6.33342 2.55768 6.33342 2.61864V13.2147C6.33342 13.2757 6.35881 13.3315 6.40961 13.3821C6.46028 13.4329 6.51609 13.4583 6.57705 13.4583H14.7981C14.8591 13.4583 14.9149 13.4329 14.9656 13.3821C15.0163 13.3315 15.0417 13.2757 15.0417 13.2147V5.9375H11.4792ZM3.41038 17.8125C3.01046 17.8125 2.67196 17.674 2.39487 17.3969C2.11779 17.1198 1.97925 16.7813 1.97925 16.3814V5.9375H3.16675V16.3814C3.16675 16.4423 3.19215 16.4981 3.24295 16.5488C3.29361 16.5996 3.34943 16.625 3.41038 16.625H11.4792V17.8125H3.41038Z" fill="white"/>
</g>
</svg>
