<svg width="27" height="24" viewBox="0 0 27 24" fill="none" xmlns="http://www.w3.org/2000/svg">
<path d="M12.9682 22.0237C13.0925 22.0237 13.2189 21.9946 13.3474 21.9364C13.4757 21.8783 13.577 21.812 13.6514 21.7377L23.7279 11.6611C24.0122 11.3768 24.2263 11.0731 24.3701 10.7499C24.5137 10.427 24.5856 10.0879 24.5856 9.73258C24.5856 9.36428 24.5137 9.00973 24.3701 8.66893C24.2263 8.32792 24.0122 8.02177 23.7279 7.75048L18.6884 2.71095C18.4171 2.42664 18.1231 2.21865 17.8064 2.08699C17.49 1.95555 17.1476 1.88982 16.7793 1.88982C16.424 1.88982 16.0828 1.95555 15.7557 2.08699C15.4285 2.21865 15.1269 2.42664 14.8508 2.71095L14.1285 3.43318L16.4593 5.78317C16.742 6.05299 16.9508 6.36072 17.0858 6.70635C17.2206 7.05198 17.288 7.41052 17.288 7.78197C17.288 8.55092 17.0312 9.1922 16.5176 9.70581C16.004 10.2194 15.3627 10.4762 14.5937 10.4762C14.2223 10.4762 13.8625 10.4148 13.5143 10.292C13.1664 10.1693 12.8575 9.97312 12.5877 9.70329L10.2012 7.33629L4.72573 12.8117C4.6304 12.9071 4.5589 13.0137 4.51123 13.1317C4.46357 13.2495 4.43974 13.3707 4.43974 13.4952C4.43974 13.7277 4.5189 13.9263 4.67722 14.0911C4.83555 14.256 5.03093 14.3384 5.26338 14.3384C5.3879 14.3384 5.51431 14.3093 5.64261 14.2511C5.77111 14.193 5.87254 14.1267 5.94687 14.0524L10.0849 9.91432L11.4125 11.2419L7.29368 15.38C7.19856 15.4753 7.12717 15.582 7.0795 15.7C7.03184 15.8178 7.008 15.939 7.008 16.0635C7.008 16.288 7.08916 16.4813 7.25148 16.6437C7.41379 16.806 7.60718 16.8871 7.83165 16.8871C7.95617 16.8871 8.08258 16.8581 8.21087 16.7999C8.33938 16.7417 8.4407 16.6755 8.51482 16.6011L12.7984 12.3371L14.1263 13.6647L9.86195 17.9483C9.77481 18.0226 9.70541 18.1239 9.65375 18.2522C9.6021 18.3807 9.57627 18.5071 9.57627 18.6314C9.57627 18.8561 9.65743 19.0496 9.81974 19.2119C9.98206 19.3742 10.1754 19.4554 10.3999 19.4554C10.5242 19.4554 10.6454 19.4316 10.7634 19.3839C10.8812 19.3362 10.9878 19.2647 11.0831 19.1694L15.3667 14.9053L16.6946 16.2329L12.411 20.5165C12.3157 20.6119 12.2442 20.7225 12.1965 20.8485C12.1488 20.9745 12.125 21.0957 12.125 21.212C12.125 21.4444 12.2114 21.6378 12.3842 21.7922C12.557 21.9465 12.7517 22.0237 12.9682 22.0237ZM12.9487 23.9132C12.2364 23.9132 11.6154 23.6661 11.0856 23.1721C10.5558 22.6778 10.2789 22.0623 10.2547 21.3257C9.54078 21.2772 8.94433 21.0236 8.46537 20.565C7.98641 20.1062 7.72677 19.5037 7.68645 18.7574C6.94018 18.7091 6.33691 18.4483 5.87663 17.975C5.41614 17.5017 5.16973 16.9065 5.13739 16.1892C4.38798 16.1409 3.76937 15.8692 3.28159 15.374C2.79381 14.8789 2.54991 14.2526 2.54991 13.4952C2.54991 13.1238 2.62057 12.7599 2.76189 12.4035C2.9032 12.0474 3.10878 11.7345 3.3786 11.4649L10.2012 4.66156L13.8914 8.35144C13.9655 8.43858 14.0627 8.50808 14.183 8.55995C14.3036 8.6116 14.4341 8.63743 14.5745 8.63743C14.8038 8.63743 15.0016 8.56152 15.1679 8.40971C15.3345 8.25789 15.4177 8.05915 15.4177 7.81347C15.4177 7.67299 15.3919 7.5426 15.3402 7.42228C15.2884 7.30196 15.2189 7.20463 15.1317 7.1303L10.7124 2.71095C10.4411 2.42664 10.1451 2.21865 9.82447 2.08699C9.50383 1.95555 9.15936 1.88982 8.79105 1.88982C8.43576 1.88982 8.09864 1.95555 7.77968 2.08699C7.46051 2.21865 7.15887 2.42664 6.87477 2.71095L2.73638 6.86856C2.50708 7.09786 2.31935 7.36884 2.17321 7.6815C2.02706 7.99395 1.94108 8.31259 1.91525 8.63743C1.88921 8.90558 1.90128 9.17089 1.95147 9.43336C2.00144 9.69584 2.08943 9.94256 2.21541 10.1735L0.82482 11.5641C0.540507 11.1538 0.326537 10.6943 0.182911 10.1855C0.0390745 9.67673 -0.0199301 9.1607 0.0058975 8.63743C0.0317251 8.05747 0.162543 7.49734 0.398351 6.95707C0.634158 6.41679 0.964457 5.93425 1.38925 5.50946L5.51536 1.38335C5.98718 0.924542 6.50048 0.579335 7.05525 0.347727C7.61002 0.115908 8.19271 0 8.80333 0C9.41375 0 9.99434 0.115908 10.5451 0.347727C11.0961 0.579335 11.6009 0.924542 12.0595 1.38335L12.7817 2.10526L13.5036 1.38335C13.9753 0.924542 14.4864 0.579335 15.0372 0.347727C15.588 0.115908 16.1687 0 16.7793 0C17.39 0 17.9726 0.115908 18.5274 0.347727C19.0822 0.579335 19.589 0.924542 20.0478 1.38335L25.0558 6.39138C25.5144 6.85018 25.8657 7.3723 26.1097 7.95773C26.3535 8.54315 26.4754 9.14117 26.4754 9.7518C26.4754 10.3624 26.3535 10.9431 26.1097 11.4939C25.8657 12.0447 25.5144 12.5494 25.0558 13.008L14.979 23.0653C14.7012 23.3431 14.3883 23.5539 14.0403 23.6977C13.6922 23.8414 13.3283 23.9132 12.9487 23.9132Z" fill="white"/>
</svg>
