<svg width="19" height="19" viewBox="0 0 19 19" fill="none" xmlns="http://www.w3.org/2000/svg">
<mask id="mask0_15_1185" style="mask-type:alpha" maskUnits="userSpaceOnUse" x="0" y="0" width="19" height="19">
<rect width="19" height="19" fill="#D9D9D9"/>
</mask>
<g mask="url(#mask0_15_1185)">
<path d="M8.61718 5.54167C8.61718 5.1874 8.74173 4.88571 8.99084 4.63659C9.23995 4.38748 9.54164 4.26293 9.89591 4.26293C10.2502 4.26293 10.5519 4.38748 10.801 4.63659C11.0501 4.88571 11.1747 5.1874 11.1747 5.54167C11.1747 5.89594 11.0501 6.19763 10.801 6.44674C10.5519 6.69585 10.2502 6.82041 9.89591 6.82041C9.54164 6.82041 9.23995 6.69585 8.99084 6.44674C8.74173 6.19763 8.61718 5.89594 8.61718 5.54167ZM9.89591 18.5204L6.8664 15.4755L7.96999 14.0064L6.85116 12.4992L7.91675 10.9539V9.4147C7.21441 9.05343 6.64302 8.52975 6.20259 7.84364C5.76203 7.15752 5.54175 6.3902 5.54175 5.54167C5.54175 4.33385 5.96549 3.3062 6.81297 2.45872C7.66045 1.61124 8.6881 1.1875 9.89591 1.1875C11.1037 1.1875 12.1314 1.61124 12.9789 2.45872C13.8263 3.3062 14.2501 4.33385 14.2501 5.54167C14.2501 6.3902 14.0311 7.15752 13.5932 7.84364C13.1551 8.52975 12.5824 9.05343 11.8751 9.4147V16.5413L9.89591 18.5204ZM6.72925 5.54167C6.72925 6.30088 6.95863 6.95829 7.4174 7.51391C7.87617 8.06966 8.43846 8.43231 9.10425 8.60185V11.327L8.31555 12.4672L9.44684 14.0141L8.41906 15.3583L9.89591 16.8352L10.6876 16.0435V8.60185C11.3534 8.43231 11.9157 8.06966 12.3744 7.51391C12.8332 6.95829 13.0626 6.30088 13.0626 5.54167C13.0626 4.67083 12.7525 3.92535 12.1324 3.30521C11.5122 2.68507 10.7667 2.375 9.89591 2.375C9.02508 2.375 8.2796 2.68507 7.65946 3.30521C7.03932 3.92535 6.72925 4.67083 6.72925 5.54167Z" fill="white"/>
</g>
</svg>
