<svg width="23" height="22" viewBox="0 0 23 22" fill="none" xmlns="http://www.w3.org/2000/svg">
<path d="M2.73874 19.1226V20.741C2.73874 21.0162 2.64573 21.2467 2.45971 21.4328C2.27349 21.619 2.0428 21.7121 1.76767 21.7121H0.971068C0.695932 21.7121 0.465357 21.619 0.279344 21.4328C0.0931148 21.2467 0 21.0162 0 20.741V10.8064L2.64422 3.26182C2.74068 2.96467 2.91752 2.72859 3.17474 2.55359C3.43197 2.37836 3.71833 2.29075 4.03382 2.29075H7.71869V0H14.342V2.29075H18.0269C18.3299 2.29075 18.605 2.37976 18.8523 2.55779C19.0994 2.73582 19.2708 2.9705 19.3667 3.26182L22.0109 10.8064V20.741C22.0109 21.0162 21.9178 21.2467 21.7315 21.4328C21.5455 21.619 21.3149 21.7121 21.0398 21.7121H20.2432C19.9681 21.7121 19.7374 21.619 19.5512 21.4328C19.3651 21.2467 19.2721 21.0162 19.2721 20.741V19.1226H2.73874ZM2.72902 8.86423H19.2818L17.6485 4.23289H4.36236L2.72902 8.86423ZM5.13209 15.6866C5.60317 15.6866 6.00271 15.5217 6.33071 15.1917C6.6585 14.862 6.8224 14.4616 6.8224 13.9905C6.8224 13.5194 6.65753 13.1199 6.3278 12.7919C5.99785 12.4641 5.59734 12.3002 5.12627 12.3002C4.65519 12.3002 4.25576 12.4651 3.92797 12.7948C3.59996 13.1247 3.43596 13.5252 3.43596 13.9963C3.43596 14.4674 3.60094 14.8668 3.93088 15.1946C4.26061 15.5226 4.66102 15.6866 5.13209 15.6866ZM16.8846 15.6866C17.3557 15.6866 17.7551 15.5217 18.0829 15.1917C18.4109 14.862 18.5749 14.4616 18.5749 13.9905C18.5749 13.5194 18.4099 13.1199 18.08 12.7919C17.7503 12.4641 17.3499 12.3002 16.8788 12.3002C16.4077 12.3002 16.0082 12.4651 15.6802 12.7948C15.3524 13.1247 15.1885 13.5252 15.1885 13.9963C15.1885 14.4674 15.3533 14.8668 15.6831 15.1946C16.013 15.5226 16.4135 15.6866 16.8846 15.6866ZM1.94214 17.1805H20.0687V10.8064H1.94214V17.1805Z" fill="white"/>
</svg>
