<svg width="14" height="14" viewBox="0 0 14 14" fill="none" xmlns="http://www.w3.org/2000/svg">
<mask id="mask0_60_542" style="mask-type:alpha" maskUnits="userSpaceOnUse" x="0" y="0" width="14" height="14">
<rect width="14" height="14" fill="#D9D9D9"/>
</mask>
<g mask="url(#mask0_60_542)">
<path d="M2.51277 11.375C2.21809 11.375 1.96867 11.2729 1.7645 11.0688C1.56034 10.8646 1.45825 10.6152 1.45825 10.3205V3.67952C1.45825 3.38484 1.56034 3.13542 1.7645 2.93125C1.96867 2.72708 2.21809 2.625 2.51277 2.625H11.4871C11.7817 2.625 12.0312 2.72708 12.2353 2.93125C12.4395 3.13542 12.5416 3.38484 12.5416 3.67952V10.3205C12.5416 10.6152 12.4395 10.8646 12.2353 11.0688C12.0312 11.2729 11.7817 11.375 11.4871 11.375H2.51277ZM6.99992 7.32535L2.33325 4.34131V10.3205C2.33325 10.3729 2.35007 10.4159 2.38371 10.4495C2.41735 10.4832 2.46037 10.5 2.51277 10.5H11.4871C11.5395 10.5 11.5825 10.4832 11.6161 10.4495C11.6498 10.4159 11.6666 10.3729 11.6666 10.3205V4.34131L6.99992 7.32535ZM6.99992 6.41667L11.5769 3.5H2.42294L6.99992 6.41667ZM2.33325 4.34131V3.5V10.3205C2.33325 10.3729 2.35007 10.4159 2.38371 10.4495C2.41735 10.4832 2.46037 10.5 2.51277 10.5H2.33325V4.34131Z" fill="#9C9C9C"/>
</g>
</svg>
