<svg width="20" height="19" viewBox="0 0 20 19" fill="none" xmlns="http://www.w3.org/2000/svg">
<path d="M9.63439 8.99209C8.39797 8.99209 7.33958 8.55191 6.45921 7.67154C5.57863 6.79096 5.13834 5.73246 5.13834 4.49605C5.13834 3.25963 5.57863 2.20124 6.45921 1.32087C7.33958 0.440292 8.39797 0 9.63439 0C10.8708 0 11.9292 0.440292 12.8096 1.32087C13.6901 2.20124 14.1304 3.25963 14.1304 4.49605C14.1304 5.73246 13.6901 6.79096 12.8096 7.67154C11.9292 8.55191 10.8708 8.99209 9.63439 8.99209ZM0 18.7749V15.9189C0 15.2899 0.17085 14.7073 0.51255 14.1712C0.854249 13.6351 1.31092 13.223 1.88256 12.9348C3.15216 12.3124 4.433 11.8456 5.72507 11.5343C7.01715 11.223 8.32026 11.0673 9.63439 11.0673C10.9485 11.0673 12.2516 11.223 13.5437 11.5343C14.8358 11.8456 16.1166 12.3124 17.3862 12.9348C17.9579 13.223 18.4145 13.6351 18.7562 14.1712C19.0979 14.7073 19.2688 15.2899 19.2688 15.9189V18.7749H0ZM1.92688 16.848H17.3419V15.9189C17.3419 15.6588 17.2665 15.4179 17.1158 15.1963C16.9651 14.9749 16.7605 14.7942 16.5021 14.6542C15.3952 14.1091 14.2667 13.6961 13.1166 13.4152C11.9662 13.1346 10.8055 12.9942 9.63439 12.9942C8.46327 12.9942 7.30254 13.1346 6.1522 13.4152C5.00207 13.6961 3.87356 14.1091 2.76667 14.6542C2.50826 14.7942 2.30369 14.9749 2.15296 15.1963C2.00224 15.4179 1.92688 15.6588 1.92688 15.9189V16.848ZM9.63439 7.06522C10.3409 7.06522 10.9457 6.81365 11.4489 6.31052C11.952 5.80739 12.2036 5.20257 12.2036 4.49605C12.2036 3.78953 11.952 3.1847 11.4489 2.68157C10.9457 2.17844 10.3409 1.92688 9.63439 1.92688C8.92787 1.92688 8.32304 2.17844 7.81991 2.68157C7.31678 3.1847 7.06522 3.78953 7.06522 4.49605C7.06522 5.20257 7.31678 5.80739 7.81991 6.31052C8.32304 6.81365 8.92787 7.06522 9.63439 7.06522Z" fill="white"/>
</svg>
