<svg width="19" height="19" viewBox="0 0 19 19" fill="none" xmlns="http://www.w3.org/2000/svg">
<mask id="mask0_15_1210" style="mask-type:alpha" maskUnits="userSpaceOnUse" x="0" y="0" width="19" height="19">
<rect width="19" height="19" fill="#D9D9D9"/>
</mask>
<g mask="url(#mask0_15_1210)">
<path d="M13.3044 17.0208C12.7119 17.0208 12.2088 16.8136 11.7951 16.3992C11.3816 15.9847 11.1749 15.4815 11.1749 14.8895C11.1749 14.8103 11.2022 14.6179 11.257 14.3123L5.62705 10.998C5.43626 11.1959 5.20958 11.351 4.94701 11.4631C4.68444 11.5753 4.40313 11.6314 4.10309 11.6314C3.51317 11.6314 3.01171 11.4233 2.59873 11.0071C2.18574 10.591 1.97925 10.0886 1.97925 9.5C1.97925 8.91139 2.18574 8.40901 2.59873 7.99286C3.01171 7.57671 3.51317 7.36863 4.10309 7.36863C4.40313 7.36863 4.68444 7.42471 4.94701 7.53686C5.20958 7.64901 5.43626 7.80405 5.62705 8.00197L11.257 4.69517C11.2256 4.5978 11.204 4.5024 11.1923 4.40899C11.1807 4.31557 11.1749 4.21608 11.1749 4.11053C11.1749 3.51849 11.3822 3.01526 11.7969 2.60082C12.2117 2.18638 12.7154 1.97916 13.308 1.97916C13.9006 1.97916 14.4036 2.18658 14.8171 2.60141C15.2308 3.01612 15.4376 3.51975 15.4376 4.11231C15.4376 4.70487 15.2304 5.20798 14.8159 5.62162C14.4015 6.03514 13.8983 6.24189 13.3062 6.24189C13.0047 6.24189 12.7243 6.18456 12.4651 6.0699C12.2057 5.95524 11.9806 5.79896 11.7898 5.60104L6.15984 8.91535C6.19124 9.01286 6.21282 9.10825 6.22456 9.20154C6.23617 9.29496 6.24198 9.39444 6.24198 9.5C6.24198 9.60555 6.23617 9.70504 6.22456 9.79846C6.21282 9.89174 6.19124 9.98714 6.15984 10.0846L11.7898 13.399C11.9806 13.201 12.2057 13.0448 12.4651 12.9301C12.7243 12.8154 13.0047 12.7581 13.3062 12.7581C13.8983 12.7581 14.4015 12.9655 14.8159 13.3802C15.2304 13.795 15.4376 14.2987 15.4376 14.8912C15.4376 15.4838 15.2302 15.9868 14.8153 16.4004C14.4006 16.814 13.897 17.0208 13.3044 17.0208ZM13.3062 15.8333C13.5737 15.8333 13.7978 15.7429 13.9787 15.562C14.1596 15.3811 14.2501 15.1569 14.2501 14.8895C14.2501 14.622 14.1596 14.3978 13.9787 14.2169C13.7978 14.0359 13.5737 13.9454 13.3062 13.9454C13.0388 13.9454 12.8146 14.0359 12.6337 14.2169C12.4527 14.3978 12.3622 14.622 12.3622 14.8895C12.3622 15.1569 12.4527 15.3811 12.6337 15.562C12.8146 15.7429 13.0388 15.8333 13.3062 15.8333ZM4.10309 10.4439C4.37265 10.4439 4.59861 10.3534 4.78096 10.1725C4.96344 9.99162 5.05468 9.76745 5.05468 9.5C5.05468 9.23255 4.96344 9.00837 4.78096 8.82748C4.59861 8.64658 4.37265 8.55613 4.10309 8.55613C3.83775 8.55613 3.61536 8.64658 3.43591 8.82748C3.25647 9.00837 3.16675 9.23255 3.16675 9.5C3.16675 9.76745 3.25647 9.99162 3.43591 10.1725C3.61536 10.3534 3.83775 10.4439 4.10309 10.4439ZM13.3062 5.05459C13.5737 5.05459 13.7978 4.96408 13.9787 4.78305C14.1596 4.60215 14.2501 4.37798 14.2501 4.11053C14.2501 3.84308 14.1596 3.6189 13.9787 3.43801C13.7978 3.25711 13.5737 3.16666 13.3062 3.16666C13.0388 3.16666 12.8146 3.25711 12.6337 3.43801C12.4527 3.6189 12.3622 3.84308 12.3622 4.11053C12.3622 4.37798 12.4527 4.60215 12.6337 4.78305C12.8146 4.96408 13.0388 5.05459 13.3062 5.05459Z" fill="white"/>
</g>
</svg>
