<svg width="29" height="24" viewBox="0 0 29 24" fill="none" xmlns="http://www.w3.org/2000/svg">
<path d="M0 21.9233V18.5884C0 17.7924 0.2005 17.0968 0.6015 16.5015C1.00225 15.9063 1.53438 15.4404 2.19788 15.1039C3.47288 14.4539 4.819 13.928 6.23625 13.5263C7.65375 13.1243 9.325 12.9233 11.25 12.9233C12 12.9233 12.6975 12.9535 13.3425 13.014C13.9877 13.0745 14.5903 13.1654 15.15 13.2866L13.1595 15.2771C12.8845 15.2271 12.5869 15.1973 12.2666 15.1875C11.9464 15.178 11.6075 15.1733 11.25 15.1733C9.475 15.1733 7.91963 15.3713 6.58388 15.7673C5.24838 16.1635 4.13063 16.6116 3.23063 17.1116C2.89013 17.2944 2.64162 17.5079 2.48513 17.7521C2.32837 17.9964 2.25 18.2751 2.25 18.5884V19.6733H11.3363L13.5863 21.9233H0ZM19.4306 23.0422L14.775 18.3866L16.3556 16.806L19.4306 19.881L27.0056 12.306L28.5863 13.8866L19.4306 23.0422ZM11.25 10.5C9.80625 10.5 8.57025 9.986 7.542 8.958C6.514 7.92975 6 6.69375 6 5.25C6 3.80625 6.514 2.57038 7.542 1.54238C8.57025 0.514125 9.80625 0 11.25 0C12.6938 0 13.9296 0.514125 14.9576 1.54238C15.9856 2.57038 16.4996 3.80625 16.4996 5.25C16.4996 6.69375 15.9856 7.92975 14.9576 8.958C13.9296 9.986 12.6938 10.5 11.25 10.5ZM11.25 8.25C12.075 8.25 12.7813 7.95625 13.3688 7.36875C13.9563 6.78125 14.25 6.075 14.25 5.25C14.25 4.425 13.9563 3.71875 13.3688 3.13125C12.7813 2.54375 12.075 2.25 11.25 2.25C10.425 2.25 9.71875 2.54375 9.13125 3.13125C8.54375 3.71875 8.25 4.425 8.25 5.25C8.25 6.075 8.54375 6.78125 9.13125 7.36875C9.71875 7.95625 10.425 8.25 11.25 8.25Z" fill="#7B54FA"/>
</svg>
