<svg width="20" height="19" viewBox="0 0 20 19" fill="none" xmlns="http://www.w3.org/2000/svg">
<path d="M1.11133 13.417H7.77734C8.01096 13.417 8.13867 13.5921 8.13867 13.7227V17.9443C8.13867 18.0749 8.01096 18.25 7.77734 18.25H1.11133C0.877716 18.25 0.75 18.0749 0.75 17.9443V13.7227C0.75 13.5921 0.877716 13.417 1.11133 13.417ZM12.2227 9.19434H18.8887C19.1223 9.19434 19.25 9.36944 19.25 9.5V17.9443C19.25 18.0749 19.1223 18.25 18.8887 18.25H12.2227C11.989 18.25 11.8613 18.0749 11.8613 17.9443V9.5C11.8613 9.36944 11.989 9.19434 12.2227 9.19434ZM1.11133 0.75H7.77734C8.01096 0.75 8.13867 0.925107 8.13867 1.05566V9.5C8.13867 9.63056 8.01096 9.80566 7.77734 9.80566H1.11133C0.877716 9.80566 0.75 9.63056 0.75 9.5V1.05566C0.75 0.925107 0.877716 0.75 1.11133 0.75ZM12.2227 0.75H18.8887C19.1223 0.75 19.25 0.925107 19.25 1.05566V5.27734C19.25 5.4079 19.1223 5.58301 18.8887 5.58301H12.2227C11.989 5.58301 11.8613 5.4079 11.8613 5.27734V1.05566C11.8613 0.925108 11.989 0.75 12.2227 0.75Z" stroke="#90A1B8" stroke-width="1.5"/>
</svg>
